<svg xmlns="http://www.w3.org/2000/svg" viewBox="0 0 480.1 180" width="480.1" height="180"><defs><radialGradient id="g" cx="0.34" cy="0.28" r="0.82"><stop offset="0" stop-color="#CFA6F5"></stop><stop offset="0.5" stop-color="#C594F2"></stop><stop offset="1" stop-color="#7C42B4"></stop></radialGradient></defs><g transform="scale(1.5)"><line x1="60" y1="16" x2="98" y2="38" stroke="#A861E6" stroke-width="5" stroke-linecap="round"></line><line x1="60" y1="16" x2="98" y2="38" stroke="#fff" stroke-opacity="0.30" stroke-width="1.50" stroke-linecap="round"></line><line x1="98" y1="38" x2="98" y2="82" stroke="#A861E6" stroke-width="5" stroke-linecap="round"></line><line x1="98" y1="38" x2="98" y2="82" stroke="#fff" stroke-opacity="0.30" stroke-width="1.50" stroke-linecap="round"></line><line x1="98" y1="82" x2="60" y2="104" stroke="#A861E6" stroke-width="5" stroke-linecap="round"></line><line x1="98" y1="82" x2="60" y2="104" stroke="#fff" stroke-opacity="0.30" stroke-width="1.50" stroke-linecap="round"></line><line x1="60" y1="104" x2="22" y2="82" stroke="#A861E6" stroke-width="5" stroke-linecap="round"></line><line x1="60" y1="104" x2="22" y2="82" stroke="#fff" stroke-opacity="0.30" stroke-width="1.50" stroke-linecap="round"></line><line x1="22" y1="82" x2="22" y2="38" stroke="#A861E6" stroke-width="5" stroke-linecap="round"></line><line x1="22" y1="82" x2="22" y2="38" stroke="#fff" stroke-opacity="0.30" stroke-width="1.50" stroke-linecap="round"></line><line x1="22" y1="38" x2="60" y2="16" stroke="#A861E6" stroke-width="5" stroke-linecap="round"></line><line x1="22" y1="38" x2="60" y2="16" stroke="#fff" stroke-opacity="0.30" stroke-width="1.50" stroke-linecap="round"></line><line x1="60" y1="60" x2="60" y2="16" stroke="#7C42B4" stroke-width="4.5" stroke-linecap="round"></line><line x1="60" y1="60" x2="60" y2="16" stroke="#fff" stroke-opacity="0.30" stroke-width="1.35" stroke-linecap="round"></line><line x1="60" y1="60" x2="98" y2="38" stroke="#7C42B4" stroke-width="4.5" stroke-linecap="round"></line><line x1="60" y1="60" x2="98" y2="38" stroke="#fff" stroke-opacity="0.30" stroke-width="1.35" stroke-linecap="round"></line><line x1="60" y1="60" x2="98" y2="82" stroke="#7C42B4" stroke-width="4.5" stroke-linecap="round"></line><line x1="60" y1="60" x2="98" y2="82" stroke="#fff" stroke-opacity="0.30" stroke-width="1.35" stroke-linecap="round"></line><line x1="60" y1="60" x2="60" y2="104" stroke="#7C42B4" stroke-width="4.5" stroke-linecap="round"></line><line x1="60" y1="60" x2="60" y2="104" stroke="#fff" stroke-opacity="0.30" stroke-width="1.35" stroke-linecap="round"></line><line x1="60" y1="60" x2="22" y2="82" stroke="#7C42B4" stroke-width="4.5" stroke-linecap="round"></line><line x1="60" y1="60" x2="22" y2="82" stroke="#fff" stroke-opacity="0.30" stroke-width="1.35" stroke-linecap="round"></line><line x1="60" y1="60" x2="22" y2="38" stroke="#7C42B4" stroke-width="4.5" stroke-linecap="round"></line><line x1="60" y1="60" x2="22" y2="38" stroke="#fff" stroke-opacity="0.30" stroke-width="1.35" stroke-linecap="round"></line><circle cx="60" cy="16" r="9" fill="url(#g)"></circle><ellipse cx="57.30" cy="12.76" rx="3.24" ry="2.16" fill="#fff" opacity="0.5"></ellipse><circle cx="98" cy="38" r="9" fill="url(#g)"></circle><ellipse cx="95.30" cy="34.76" rx="3.24" ry="2.16" fill="#fff" opacity="0.5"></ellipse><circle cx="98" cy="82" r="9" fill="url(#g)"></circle><ellipse cx="95.30" cy="78.76" rx="3.24" ry="2.16" fill="#fff" opacity="0.5"></ellipse><circle cx="60" cy="104" r="9" fill="url(#g)"></circle><ellipse cx="57.30" cy="100.76" rx="3.24" ry="2.16" fill="#fff" opacity="0.5"></ellipse><circle cx="22" cy="82" r="9" fill="url(#g)"></circle><ellipse cx="19.30" cy="78.76" rx="3.24" ry="2.16" fill="#fff" opacity="0.5"></ellipse><circle cx="22" cy="38" r="9" fill="url(#g)"></circle><ellipse cx="19.30" cy="34.76" rx="3.24" ry="2.16" fill="#fff" opacity="0.5"></ellipse><circle cx="60" cy="60" r="13" fill="url(#g)"></circle><ellipse cx="56.10" cy="55.32" rx="4.68" ry="3.12" fill="#fff" opacity="0.5"></ellipse><circle cx="60" cy="60" r="3.6" fill="#FFFFFF" opacity="0.92"></circle></g><text x="163.8" y="90" font-family="Manrope, sans-serif" font-size="100" font-weight="800" letter-spacing="-2.2" fill="#F4F1F8">Seqnc</text><text x="163.8" y="155" font-family="Manrope, sans-serif" font-size="40" font-weight="500" fill="rgba(169,159,181,0.95)" textLength="300.3" lengthAdjust="spacing">Automations</text></svg>